<mxfile host="65bd71144e">
    <diagram id="rL1z4O1s6of2xFESjfWg" name="Page-1">
        <mxGraphModel dx="1014" dy="729" grid="1" gridSize="10" guides="1" tooltips="1" connect="1" arrows="1" fold="1" page="1" pageScale="1" pageWidth="827" pageHeight="1169" math="0" shadow="0">
            <root>
                <mxCell id="0"/>
                <mxCell id="1" parent="0"/>
                <mxCell id="2" value="" style="shape=image;verticalLabelPosition=bottom;verticalAlign=top;imageAspect=1;aspect=fixed;image=data:image/svg+xml,PHN2ZyB4bWxucz0iaHR0cDovL3d3dy53My5vcmcvMjAwMC9zdmciIHZpZXdCb3g9IjAgMCAxMDMuMzgxIDQ4Ij48cGF0aCBkPSJNMTAuMDUzIDQuMjcxQTIuODU1IDIuODU1IDAgMDA4IDMuNDFhMi44MTUgMi44MTUgMCAwMC0yLjAzOC44NjJoLS4wMTNhMi45NjUgMi45NjUgMCAwMC0uODQzIDIuMDgzIDIuOTM1IDIuOTM1IDAgMDAuODQzIDIuMDc5bC4wMTMuMDE1QTIuODI1IDIuODI1IDAgMDA4IDkuM2EyLjg2NiAyLjg2NiAwIDAwMi4wNTItLjg1M2wuMDA2LS4wMTRhMi45MjQgMi45MjQgMCAwMC44NDEtMi4wNzkgMi45NTQgMi45NTQgMCAwMC0uODQtMi4wODR6TTggNDQuNTlhMi44OTIgMi44OTIgMCAwMDIuMDUyLS44NThsLjAwNi0uMDE1YTIuOTIzIDIuOTIzIDAgMDAuODQxLTIuMDczIDIuOTYgMi45NiAwIDAwLS44NC0yLjA4N2gtLjAwN0EyLjgzNyAyLjgzNyAwIDAwOCAzOC42OTNhMi43OTcgMi43OTcgMCAwMC0yLjAzOC44NjRoLS4wMTNhMi45NzEgMi45NzEgMCAwMC0uODQzIDIuMDg4IDIuOTM1IDIuOTM1IDAgMDAuODQzIDIuMDcybC4wMTMuMDE1QTIuODUxIDIuODUxIDAgMDA4IDQ0LjU5em0xNS43Ny04LjkyNGEyLjg1NyAyLjg1NyAwIDAwMS43NjItMS4zNjhsLjA1NC0uMTA0YTIuOTQ1IDIuOTQ1IDAgMDAuMjI4LTIuMTMzIDIuOTAzIDIuOTAzIDAgMDAtMS4zNS0xLjc5MmwtLjA0LS4wMjhhMi44OCAyLjg4IDAgMDAtMy45MTYgMS4xMDggMi45NzggMi45NzggMCAwMDEuMDU4IDQuMDMxaC4wMDRhMi44NjcgMi44NjcgMCAwMDIuMi4yODZ6TTEwLjk2OSAyMC45ODJhNC4xMzQgNC4xMzQgMCAwMC01LjkzMSAwIDQuMjggNC4yOCAwIDAwLTEuMjIzIDMuMDEzIDQuMzMgNC4zMyAwIDAwMS4yMjMgMy4wMjcgNC4xNTQgNC4xNTQgMCAwMDUuOTMxIDAgNC4zMjUgNC4zMjUgMCAwMDEuMjI0LTMuMDI3IDQuMjc2IDQuMjc2IDAgMDAtMS4yMjQtMy4wMTN6TTkuMyAxNS45NjJhNy45MSA3LjkxIDAgMDE0LjM1MyAyLjI4OWguMDFjLjE4My4xODYuMzYyLjM5MS41MjguNTk3bDIuODktMS43MDFhNi40MDIgNi40MDIgMCAwMTIuODE1LTcuNDY4bC4wNS0uMDMyYTYuMTE0IDYuMTE0IDAgMDE0LjY4Ni0uNjExIDYuMjUyIDYuMjUyIDAgMDEzLjc5MyAyLjk2M3YuMDA1YTYuNDM4IDYuNDM4IDAgMDEuNjI1IDQuODE1IDYuMjkzIDYuMjkzIDAgMDEtMi45MSAzLjg1N2wtLjM5NS4yMzdoLS4wNGE2LjE3MyA2LjE3MyAwIDAxLTQuMzA0LjQgNi4yNDMgNi4yNDMgMCAwMS0zLjAyNS0xLjg4NmwtMi44ODYgMS42OTZhOC4yMTIgOC4yMTIgMCAwMS41MTUgMi44NzIgOC4zMjcgOC4zMjcgMCAwMS0uNTE1IDIuODg2bDIuODg1IDEuNjkxYTYuMTQzIDYuMTQzIDAgMDEzLjAyNi0xLjg4NyA2LjA3MSA2LjA3MSAwIDAxNC43MzkuNjM4bC4wOTYuMDQ2di4wMDRhNi4zMzIgNi4zMzIgMCAwMTIuODEzIDMuODEyIDYuNDMyIDYuNDMyIDAgMDEtLjYyNCA0LjgxbC0uMDUyLjEwNS0uMDA2LS4wMDlhNi4yOTcgNi4yOTcgMCAwMS0zLjczMSAyLjg3MyA2LjE4NyA2LjE4NyAwIDAxLTQuNzQtLjYzNXYtLjAxMmE2LjQgNi40IDAgMDEtMi44MTUtNy40NjRsLTIuODktMS42OTdhOC4wNDYgOC4wNDYgMCAwMS0uNTMuNTg4bC0uMDA4LjAxQTcuODYyIDcuODYyIDAgMDE5LjMgMzIuMDI3djMuMzk4YTYuMTcyIDYuMTcyIDAgMDEzLjExNyAxLjcyM2wuMDA1LjAxYTYuNDEgNi40MSAwIDAxMCA4Ljk2M2wtLjAwNS4wMThhNi4xNjQgNi4xNjQgMCAwMS04LjgyNSAwaC0uMDA1di0uMDE4YTYuNDAzIDYuNDAzIDAgMDEwLTguOTY0di0uMDA5aC4wMDRhNi4xNzcgNi4xNzcgMCAwMTMuMTE0LTEuNzIzdi0zLjM5OGE3Ljg0NCA3Ljg0NCAwIDAxLTQuMzQ4LTIuMjc1bC0uMDEyLS4wMWE4LjIxNSA4LjIxNSAwIDAxMC0xMS40OTJoLjAxMmE3Ljg5MiA3Ljg5MiAwIDAxNC4zNDgtMi4yOXYtMy4zODNhNi4yODUgNi4yODUgMCAwMS0zLjExNC0xLjcyN2gtLjAwNHYtLjAxYTYuNDE0IDYuNDE0IDAgMDEwLTguOTczbC4wMDQtLjAwNGE2LjE1NSA2LjE1NSAwIDAxOC44MjYgMHYuMDA0aC4wMDRhNi40MjEgNi40MjEgMCAwMTAgOC45NzRsLS4wMDQuMDA5QTYuMjggNi4yOCAwIDAxOS4zIDEyLjU3OHptMTYuMjMyLTIuMjU3bC0uMDI0LS4wMzdhMi45MDkgMi45MDkgMCAwMC0xLjczOC0xLjMzNiAyLjg1NCAyLjg1NCAwIDAwLTIuMjA0LjI5MmguMDA0YTIuOTEzIDIuOTEzIDAgMDAtMS4zNTMgMS43OTIgMi45OTYgMi45OTYgMCAwMC4yOTEgMi4yMzhsLjAxMy4wMTlhMi44NTYgMi44NTYgMCAwMDEuNzQ4IDEuMzQ1IDIuNzkyIDIuNzkyIDAgMDAyLjE5Ni0uMjg4bC4wMzctLjAxOGEyLjkzOCAyLjkzOCAwIDAwMS4zMTItMS43NjkgMi45OTQgMi45OTQgMCAwMC0uMjgyLTIuMjM4bTEyLjgyMy45OTRoMy4yMjR2MTAuMDE2bDQuNjUtNS4yMzRoMy44NjdsLTUuNjE0IDYuMDY0IDUuNjM3IDcuNjg3aC0zLjY5MmwtNC44NDgtNi44NjZ2Ni44NjZoLTMuMjI0VjE0LjY5OW0xNS40ODcgMTEuNzE3YTQuMDk2IDQuMDk2IDAgMDA0LjExIDQuMTg1IDMuODIgMy44MiAwIDAwMy41OTMtMi4yMDIgNC44MDQgNC44MDQgMCAwMC41MTktMS45MjggNC4zOCA0LjM4IDAgMDAtLjM3Mi0xLjkzNCAzLjk2MiAzLjk2MiAwIDAwLTMuNzY0LTIuNDI1IDQuMTA1IDQuMTA1IDAgMDAtNC4wODYgNC4yODF6bTExLjQyIDYuODE2aC0zLjIyNnYtMS45NzlhNS4wMDQgNS4wMDQgMCAwMS00LjU1MiAyLjQwM2MtNC4zMzIgMC02Ljg2Ny0zLjQzMy02Ljg2Ny03LjMxMyAwLTQuMzMyIDMuMDc3LTcuMjg2IDYuODY3LTcuMjg2YTUuMDIzIDUuMDIzIDAgMDE0LjU1MiAyLjQzdi0yLjAwNmgzLjIyNnYxMy43NW0zLjY1Mi0xMS4yMTloLTEuNjcxdi0yLjUzaDEuNjd2LS43NzVjMC00LjA4NiAzLjA1NC00LjMzMiA1LjM2OC00LjM2djIuNTI2Yy0uODE0IDAtMi4xNDEgMC0yLjE0MSAxLjkzM3YuNjc1aDIuMTQxdjIuNTNINzIuMTR2MTEuMjJoLTMuMjI2di0xMS4yMm03LjU2LTcuMzEyaDMuMjI0djEwLjAxNmw0LjY1LTUuMjM0aDMuODY3bC01LjYxNCA2LjA2NCA1LjYzNiA3LjY4N2gtMy42OTJsLTQuODQ3LTYuODY2djYuODY2aC0zLjIyNFYxNC42OTltMTUuNDg3IDExLjcxN2E0LjA5NiA0LjA5NiAwIDAwNC4xMSA0LjE4NSAzLjgyMiAzLjgyMiAwIDAwMy41OTItMi4yMDIgNC43NyA0Ljc3IDAgMDAuNTItMS45MjggNC4zNzIgNC4zNzIgMCAwMC0uMzczLTEuOTM0IDMuOTYgMy45NiAwIDAwLTMuNzYzLTIuNDI1IDQuMTA1IDQuMTA1IDAgMDAtNC4wODYgNC4yODF6bTExLjQyIDYuODE2aC0zLjIyNXYtMS45NzlhNS4wMDggNS4wMDggMCAwMS00LjU1MiAyLjQwM2MtNC4zMzMgMC02Ljg2NS0zLjQzMy02Ljg2NS03LjMxMyAwLTQuMzMyIDMuMDc1LTcuMjg2IDYuODY1LTcuMjg2YTUuMDI1IDUuMDI1IDAgMDE0LjU1MiAyLjQzdi0yLjAwNmgzLjIyNXYxMy43NSIgZmlsbD0iIzIzMWYyMCIvPjwvc3ZnPg==;" vertex="1" parent="1">
                    <mxGeometry x="80" y="112" width="80" height="80" as="geometry"/>
                </mxCell>
                <mxCell id="4" value="" style="edgeStyle=entityRelationEdgeStyle;startArrow=none;endArrow=none;segment=10;curved=1;sourcePerimeterSpacing=0;targetPerimeterSpacing=0;" edge="1" parent="1" source="2">
                    <mxGeometry relative="1" as="geometry">
                        <mxPoint x="180" y="162" as="sourcePoint"/>
                        <mxPoint x="230" y="75" as="targetPoint"/>
                    </mxGeometry>
                </mxCell>
                <mxCell id="26" style="edgeStyle=none;html=1;entryX=0;entryY=0.5;entryDx=0;entryDy=0;startArrow=none;startFill=0;endArrow=classic;endFill=1;" edge="1" parent="1" source="35" target="20">
                    <mxGeometry relative="1" as="geometry"/>
                </mxCell>
                <mxCell id="6" value="User" style="verticalLabelPosition=bottom;html=1;verticalAlign=top;align=center;strokeColor=none;fillColor=#00BEF2;shape=mxgraph.azure.user;" vertex="1" parent="1">
                    <mxGeometry x="96.25" y="326.2" width="47.5" height="50" as="geometry"/>
                </mxCell>
                <mxCell id="8" value="AgentExecutor - MachineTools" style="swimlane;fillColor=#5BB6FC;" vertex="1" parent="1">
                    <mxGeometry x="510" y="30" width="280" height="80" as="geometry"/>
                </mxCell>
                <mxCell id="18" value="" style="sketch=0;outlineConnect=0;fontColor=#232F3E;gradientColor=none;fillColor=#5BB6FC;strokeColor=none;dashed=0;verticalLabelPosition=bottom;verticalAlign=top;align=center;html=1;fontSize=12;fontStyle=0;aspect=fixed;pointerEvents=1;shape=mxgraph.aws4.waf_bot;" vertex="1" parent="8">
                    <mxGeometry x="10" y="31" width="40" height="40" as="geometry"/>
                </mxCell>
                <mxCell id="22" value="Machine Status" style="html=1;verticalLabelPosition=middle;align=left;labelBackgroundColor=#ffffff;verticalAlign=middle;strokeWidth=2;strokeColor=#0080F0;shadow=0;dashed=0;shape=mxgraph.ios7.icons.tools;pointerEvents=1;fillColor=#5BB6FC;labelPosition=right;" vertex="1" parent="8">
                    <mxGeometry x="160" y="36.150000000000006" width="29.7" height="29.7" as="geometry"/>
                </mxCell>
                <mxCell id="33" value="" style="aspect=fixed;html=1;points=[];align=center;image;fontSize=12;image=img/lib/azure2/other/Worker_Container_App.svg;fillColor=#5BB6FC;" vertex="1" parent="8">
                    <mxGeometry x="-10" y="-11" width="43.27" height="42" as="geometry"/>
                </mxCell>
                <mxCell id="46" value="&lt;h1 style=&quot;line-height: 26%;&quot;&gt;&lt;font style=&quot;font-size: 15px;&quot;&gt;Prompt&lt;/font&gt;&lt;/h1&gt;&lt;p style=&quot;line-height: 0%;&quot;&gt;Your tools:&lt;/p&gt;" style="text;html=1;strokeColor=none;fillColor=none;spacing=5;spacingTop=-20;whiteSpace=wrap;overflow=hidden;rounded=0;" vertex="1" parent="8">
                    <mxGeometry x="60" y="30" width="70" height="50" as="geometry"/>
                </mxCell>
                <mxCell id="10" style="edgeStyle=entityRelationEdgeStyle;html=1;startArrow=none;endArrow=none;segment=10;curved=1;sourcePerimeterSpacing=0;targetPerimeterSpacing=0;entryX=1;entryY=0.5;entryDx=0;entryDy=0;" edge="1" parent="1" source="9" target="2">
                    <mxGeometry relative="1" as="geometry"/>
                </mxCell>
                <mxCell id="28" style="edgeStyle=entityRelationEdgeStyle;html=1;startArrow=none;endArrow=classic;segment=10;curved=1;sourcePerimeterSpacing=0;targetPerimeterSpacing=0;endFill=1;" edge="1" parent="1" source="9" target="17">
                    <mxGeometry relative="1" as="geometry"/>
                </mxCell>
                <mxCell id="9" value="CloudToolsAgent" style="whiteSpace=wrap;html=1;rounded=1;arcSize=50;align=center;verticalAlign=middle;strokeWidth=1;autosize=1;spacing=4;treeFolding=1;treeMoving=1;newEdgeStyle={&quot;edgeStyle&quot;:&quot;entityRelationEdgeStyle&quot;,&quot;startArrow&quot;:&quot;none&quot;,&quot;endArrow&quot;:&quot;none&quot;,&quot;segment&quot;:10,&quot;curved&quot;:1,&quot;sourcePerimeterSpacing&quot;:0,&quot;targetPerimeterSpacing&quot;:0};" vertex="1" parent="1">
                    <mxGeometry x="230" y="111" width="140" height="30" as="geometry"/>
                </mxCell>
                <mxCell id="15" style="edgeStyle=entityRelationEdgeStyle;html=1;startArrow=none;endArrow=none;segment=10;curved=1;sourcePerimeterSpacing=0;targetPerimeterSpacing=0;" edge="1" parent="1" source="11" target="2">
                    <mxGeometry relative="1" as="geometry"/>
                </mxCell>
                <mxCell id="11" value="Orchestrator" style="whiteSpace=wrap;html=1;rounded=1;arcSize=50;align=center;verticalAlign=middle;strokeWidth=1;autosize=1;spacing=4;treeFolding=1;treeMoving=1;newEdgeStyle={&quot;edgeStyle&quot;:&quot;entityRelationEdgeStyle&quot;,&quot;startArrow&quot;:&quot;none&quot;,&quot;endArrow&quot;:&quot;none&quot;,&quot;segment&quot;:10,&quot;curved&quot;:1,&quot;sourcePerimeterSpacing&quot;:0,&quot;targetPerimeterSpacing&quot;:0};" vertex="1" parent="1">
                    <mxGeometry x="230" y="160" width="140" height="30" as="geometry"/>
                </mxCell>
                <mxCell id="25" style="edgeStyle=entityRelationEdgeStyle;html=1;startArrow=none;endArrow=classic;segment=10;curved=1;sourcePerimeterSpacing=0;targetPerimeterSpacing=0;startFill=0;endFill=1;" edge="1" parent="1" source="13" target="8">
                    <mxGeometry relative="1" as="geometry"/>
                </mxCell>
                <mxCell id="13" value="MachineToolsAgent" style="whiteSpace=wrap;html=1;rounded=1;arcSize=50;align=center;verticalAlign=middle;strokeWidth=1;autosize=1;spacing=4;treeFolding=1;treeMoving=1;newEdgeStyle={&quot;edgeStyle&quot;:&quot;entityRelationEdgeStyle&quot;,&quot;startArrow&quot;:&quot;none&quot;,&quot;endArrow&quot;:&quot;none&quot;,&quot;segment&quot;:10,&quot;curved&quot;:1,&quot;sourcePerimeterSpacing&quot;:0,&quot;targetPerimeterSpacing&quot;:0};" vertex="1" parent="1">
                    <mxGeometry x="225" y="60" width="150" height="30" as="geometry"/>
                </mxCell>
                <mxCell id="16" value="" style="edgeStyle=entityRelationEdgeStyle;html=1;startArrow=none;endArrow=none;segment=10;curved=1;sourcePerimeterSpacing=0;targetPerimeterSpacing=0;" edge="1" parent="1" source="14" target="2">
                    <mxGeometry relative="1" as="geometry"/>
                </mxCell>
                <mxCell id="37" style="edgeStyle=entityRelationEdgeStyle;html=1;startArrow=none;endArrow=classic;segment=10;curved=1;sourcePerimeterSpacing=0;targetPerimeterSpacing=0;endFill=1;" edge="1" parent="1" source="14" target="35">
                    <mxGeometry relative="1" as="geometry"/>
                </mxCell>
                <mxCell id="14" value="Human" style="whiteSpace=wrap;html=1;rounded=1;arcSize=50;align=center;verticalAlign=middle;strokeWidth=1;autosize=1;spacing=4;treeFolding=1;treeMoving=1;newEdgeStyle={&quot;edgeStyle&quot;:&quot;entityRelationEdgeStyle&quot;,&quot;startArrow&quot;:&quot;none&quot;,&quot;endArrow&quot;:&quot;none&quot;,&quot;segment&quot;:10,&quot;curved&quot;:1,&quot;sourcePerimeterSpacing&quot;:0,&quot;targetPerimeterSpacing&quot;:0};" vertex="1" parent="1">
                    <mxGeometry x="66.25" y="228" width="140" height="30" as="geometry"/>
                </mxCell>
                <mxCell id="17" value="AgentExecutor - CloudTools" style="swimlane;fillColor=#5BB6FC;" vertex="1" parent="1">
                    <mxGeometry x="510" y="136" width="280" height="84" as="geometry"/>
                </mxCell>
                <mxCell id="19" value="" style="sketch=0;outlineConnect=0;fontColor=#232F3E;gradientColor=none;fillColor=#5BB6FC;strokeColor=none;dashed=0;verticalLabelPosition=bottom;verticalAlign=top;align=center;html=1;fontSize=12;fontStyle=0;aspect=fixed;pointerEvents=1;shape=mxgraph.aws4.waf_bot;" vertex="1" parent="17">
                    <mxGeometry x="10" y="30" width="40" height="40" as="geometry"/>
                </mxCell>
                <mxCell id="23" value="Order Status" style="html=1;verticalLabelPosition=middle;align=left;labelBackgroundColor=#ffffff;verticalAlign=middle;strokeWidth=2;strokeColor=#0080F0;shadow=0;dashed=0;shape=mxgraph.ios7.icons.tools;pointerEvents=1;fillColor=#5BB6FC;labelPosition=right;" vertex="1" parent="17">
                    <mxGeometry x="160" y="35.150000000000006" width="29.7" height="29.7" as="geometry"/>
                </mxCell>
                <mxCell id="45" value="&lt;h1 style=&quot;line-height: 26%;&quot;&gt;&lt;font style=&quot;font-size: 15px;&quot;&gt;Prompt&lt;/font&gt;&lt;/h1&gt;&lt;p style=&quot;line-height: 0%;&quot;&gt;Your tools:&lt;/p&gt;" style="text;html=1;strokeColor=none;fillColor=none;spacing=5;spacingTop=-20;whiteSpace=wrap;overflow=hidden;rounded=0;" vertex="1" parent="17">
                    <mxGeometry x="60" y="30.15" width="70" height="50" as="geometry"/>
                </mxCell>
                <mxCell id="27" style="edgeStyle=none;html=1;entryX=0.591;entryY=1.033;entryDx=0;entryDy=0;entryPerimeter=0;startArrow=none;startFill=0;endArrow=classic;endFill=1;" edge="1" parent="1" source="20" target="14">
                    <mxGeometry relative="1" as="geometry"/>
                </mxCell>
                <mxCell id="29" style="edgeStyle=none;html=1;entryX=1;entryY=0.75;entryDx=0;entryDy=0;startArrow=none;startFill=0;endArrow=classic;endFill=1;" edge="1" parent="1" source="20" target="9">
                    <mxGeometry relative="1" as="geometry"/>
                </mxCell>
                <mxCell id="30" style="edgeStyle=none;html=1;entryX=1;entryY=0.5;entryDx=0;entryDy=0;startArrow=none;startFill=0;endArrow=classic;endFill=1;" edge="1" parent="1" source="20" target="13">
                    <mxGeometry relative="1" as="geometry"/>
                </mxCell>
                <mxCell id="20" value="AgentOrchestrator" style="swimlane;fillColor=#5BB6FC;" vertex="1" parent="1">
                    <mxGeometry x="400" y="312.2" width="390" height="80" as="geometry"/>
                </mxCell>
                <mxCell id="21" value="MachineAgent" style="sketch=0;outlineConnect=0;fontColor=#232F3E;gradientColor=none;fillColor=#5BB6FC;strokeColor=none;dashed=0;verticalLabelPosition=middle;verticalAlign=middle;align=left;html=1;fontSize=12;fontStyle=0;aspect=fixed;pointerEvents=1;shape=mxgraph.aws4.waf_bot;labelPosition=right;" vertex="1" parent="20">
                    <mxGeometry x="260" y="30" width="40" height="40" as="geometry"/>
                </mxCell>
                <mxCell id="31" value="" style="aspect=fixed;html=1;points=[];align=center;image;fontSize=12;image=img/lib/azure2/other/Worker_Container_App.svg;fillColor=#5BB6FC;" vertex="1" parent="20">
                    <mxGeometry x="-10" y="-12" width="43.27" height="42" as="geometry"/>
                </mxCell>
                <mxCell id="38" value="CloudAgent" style="sketch=0;outlineConnect=0;fontColor=#232F3E;gradientColor=none;fillColor=#5BB6FC;strokeColor=none;dashed=0;verticalLabelPosition=middle;verticalAlign=middle;align=left;html=1;fontSize=12;fontStyle=0;aspect=fixed;pointerEvents=1;shape=mxgraph.aws4.waf_bot;labelPosition=right;" vertex="1" parent="20">
                    <mxGeometry x="130" y="30" width="40" height="40" as="geometry"/>
                </mxCell>
                <mxCell id="42" value="&lt;h1 style=&quot;line-height: 26%;&quot;&gt;&lt;font style=&quot;font-size: 15px;&quot;&gt;Prompt&lt;/font&gt;&lt;/h1&gt;&lt;p style=&quot;line-height: 0%;&quot;&gt;Your Agents:&lt;/p&gt;" style="text;html=1;strokeColor=none;fillColor=none;spacing=5;spacingTop=-20;whiteSpace=wrap;overflow=hidden;rounded=0;" vertex="1" parent="20">
                    <mxGeometry x="10" y="30" width="140" height="50" as="geometry"/>
                </mxCell>
                <mxCell id="32" value="" style="aspect=fixed;html=1;points=[];align=center;image;fontSize=12;image=img/lib/azure2/other/Worker_Container_App.svg;fillColor=#5BB6FC;" vertex="1" parent="1">
                    <mxGeometry x="500" y="125" width="43.27" height="42" as="geometry"/>
                </mxCell>
                <mxCell id="36" value="" style="edgeStyle=none;html=1;entryX=0;entryY=0.5;entryDx=0;entryDy=0;startArrow=none;startFill=0;endArrow=none;endFill=1;" edge="1" parent="1" source="6" target="35">
                    <mxGeometry relative="1" as="geometry">
                        <mxPoint x="160" y="379.05442176870747" as="sourcePoint"/>
                        <mxPoint x="320" y="339" as="targetPoint"/>
                    </mxGeometry>
                </mxCell>
                <mxCell id="35" value="UI" style="shadow=0;dashed=0;html=1;strokeColor=none;fillColor=#4495D1;labelPosition=center;verticalLabelPosition=bottom;verticalAlign=top;align=center;outlineConnect=0;shape=mxgraph.veeam.interface;" vertex="1" parent="1">
                    <mxGeometry x="240" y="330" width="50" height="42.4" as="geometry"/>
                </mxCell>
                <mxCell id="39" style="edgeStyle=none;html=1;entryX=1;entryY=0.75;entryDx=0;entryDy=0;startArrow=none;startFill=0;endArrow=classic;endFill=1;" edge="1" parent="1" source="18" target="11">
                    <mxGeometry relative="1" as="geometry"/>
                </mxCell>
                <mxCell id="40" style="edgeStyle=none;html=1;entryX=1;entryY=0.75;entryDx=0;entryDy=0;startArrow=none;startFill=0;endArrow=classic;endFill=1;" edge="1" parent="1" source="19" target="11">
                    <mxGeometry relative="1" as="geometry"/>
                </mxCell>
            </root>
        </mxGraphModel>
    </diagram>
</mxfile>